<svg xmlns="http://www.w3.org/2000/svg"  viewBox="0 0 48 48" width="48px" height="48px" fill-rule="evenodd" clip-rule="evenodd" baseProfile="basic"><path fill="#010f16" fill-rule="evenodd" d="M5.999,34.991	l0.001-14.991l2-4l4-2h5l2,1l4-1h5l2,1l4-1h5l3,3v17.991c0,4.421-3.589,8.011-8.011,8.011H14.01	C9.589,43.002,5.999,39.413,5.999,34.991z" clip-rule="evenodd"/><path fill="#ff6f43" fill-rule="evenodd" d="M24.001,24.001	c-0.673,0-1.333-0.972-1.981-0.92l-0.019-0.08l2-1h5.845l-0.187,1.683C27.929,23.245,26.014,24.001,24.001,24.001z" clip-rule="evenodd"/><path fill="#f44236" fill-rule="evenodd" d="M28.389,23.403	l0.808-1.403h10.804v0.457l-4.005,4.417C32.87,27.035,30.683,25.151,28.389,23.403z" clip-rule="evenodd"/><path fill="#e91e62" fill-rule="evenodd" d="M36.358,31.001	c0-2.223,0.053-4.235-2.512-5.684l5.743-3.316h0.412v9.308l-2.099,0.647C37.966,31.642,36.358,31.323,36.358,31.001z" clip-rule="evenodd"/><path fill="#aa47bc" fill-rule="evenodd" d="M37.789,39.653	l-6.659-1.767c2.755-2.484,5.547-5.02,6.871-6.885h2v4C40.001,36.877,39.138,38.553,37.789,39.653z" clip-rule="evenodd"/><path fill="#7c4dff" fill-rule="evenodd" d="M28.446,41.001	l-2.507-2.021l-0.013-0.053c2.229-1.681,5.28-1.981,7.92-2.239l4.408,2.544c-1.087,1.093-2.592,1.769-4.253,1.769H28.446z" clip-rule="evenodd"/><path fill="#1e89e5" fill-rule="evenodd" d="M23.201,41.001	l-0.821-2.052c0.532,0.035,1.072-0.74,1.621-0.74c1.532,0,3.007,0.652,4.388,0.391l1.385,2.401H23.201z" clip-rule="evenodd"/><path fill="#ffa926" fill-rule="evenodd" d="M18.337,23.683	l-0.185-1.683h5.847l-0.001,1C22.089,23.745,20.214,24.273,18.337,23.683z" clip-rule="evenodd"/><path fill="#fdd935" fill-rule="evenodd" d="M12.003,26.877	l-4.004-4.417v-0.459h10.801l0.808,1.403C17.45,24.645,15.615,26.415,12.003,26.877z" clip-rule="evenodd"/><path fill="#ffea00" fill-rule="evenodd" d="M10.099,31.957	l-2.1-0.647v-9.309H8.41l5.743,3.316c-2.564,1.451-2.253,3.463-2.253,5.684C11.899,31.325,10.034,31.643,10.099,31.957z" clip-rule="evenodd"/><path fill="#b1ff59" fill-rule="evenodd" d="M8.001,35.001l-0.001-4	h2.001c0.855,2.239,4.975,3.699,6.868,6.885l-6.657,1.767C8.862,38.553,8.001,36.877,8.001,35.001z" clip-rule="evenodd"/><path fill="#66dd17" fill-rule="evenodd" d="M9.745,39.23	l4.407-2.544c2.572,0.373,5.921,0.161,7.92,2.24l-0.012,0.053l-2.508,2.021h-5.551C12.337,41.001,10.831,40.323,9.745,39.23z" clip-rule="evenodd"/><path fill="#00acc1" fill-rule="evenodd" d="M18.225,41.001	l1.385-2.401c1.569-0.523,3.099-0.615,4.387,0.401l0.001,2H18.225z" clip-rule="evenodd"/><path fill="#ff8965" fill-rule="evenodd" d="M24.001,27.298	c-0.421,0-0.835-1.28-1.24-1.249l1.24-3.048c1.532,0,3.008,0.141,4.389,0.403l1.069,2.096l-1.115,1.123	C27.057,26.226,25.575,27.298,24.001,27.298z" clip-rule="evenodd"/><path fill="#ff5252" fill-rule="evenodd" d="M26.751,26.239	l1.637-2.836c2.076,0.392,3.937,1.053,5.456,1.912l1.295,2.504l-3.135,0.896C29.914,28.815,28.129,27.787,26.751,26.239z" clip-rule="evenodd"/><path fill="#f06291" fill-rule="evenodd" d="M33.659,33.259	l-1.363-0.317c0.453-0.597-0.945-1.253-0.945-1.941c0-1.413,0.589-2.692-1.112-3.601l3.607-2.083	c2.565,1.449,4.155,3.461,4.155,5.684L33.659,33.259z" clip-rule="evenodd"/><path fill="#b968c8" fill-rule="evenodd" d="M33.849,36.686	l-3.269,1.053l-2.288-2.343c0.225-2.384,3.239-3.376,4.709-4.396h5C38.001,33.223,36.411,35.235,33.849,36.686z" clip-rule="evenodd"/><path fill="#9575cd" fill-rule="evenodd" d="M28.397,38.598	l-3.193-2.641c1.381-1.068,3.193-1.449,5.035-1.352l3.608,2.083C32.329,37.545,30.469,38.206,28.397,38.598z" clip-rule="evenodd"/><path fill="#64b5f6" fill-rule="evenodd" d="M24.001,39.001l-2-1	l0.588-2.06c0.46,0.04,1.06-1.011,1.541-1.011c0.959,0,1.665,0.416,2.62,0.833l1.639,2.836	C27.007,38.861,25.533,39.001,24.001,39.001z" clip-rule="evenodd"/><path fill="#ffb84d" fill-rule="evenodd" d="M19.653,26.623	l-1.113-1.124l1.064-2.095c1.383-0.261,2.859-0.403,4.393-0.404v3.001C22.763,26.839,21.455,27.487,19.653,26.623z" clip-rule="evenodd"/><path fill="#ffec3b" fill-rule="evenodd" d="M15.994,28.715	l-1.837-3.401c1.517-0.857,3.379-1.52,5.452-1.911l1.637,2.837C19.721,27.234,18.099,28.339,15.994,28.715z" clip-rule="evenodd"/><path fill="#ffef58" fill-rule="evenodd" d="M14.339,33.259	l-4.24-1.303c-0.065-0.313-0.099-0.632-0.099-0.956c0-2.221,1.588-4.233,4.152-5.684l3.607,2.083	c-1.701,0.911-1.149,2.188-1.149,3.601c0,0.688-1.36,1.344-0.907,1.94L14.339,33.259z" clip-rule="evenodd"/><path fill="#cdff90" fill-rule="evenodd" d="M10.001,31.001h5	c2.503,1.384,3.637,3.193,4.707,4.396l-5.551,1.292C11.591,35.238,10.001,33.226,10.001,31.001z" clip-rule="evenodd"/><path fill="#78ff03" fill-rule="evenodd" d="M14.151,36.686	l3.608-2.083c1.773,0.153,3.964,0.053,5.033,1.353l-3.183,2.643C17.534,38.209,15.671,37.545,14.151,36.686z" clip-rule="evenodd"/><path fill="#4dd1e1" fill-rule="evenodd" d="M19.61,38.599	l1.637-2.836c1.007-0.527,1.948-0.528,2.749,0.237v3C22.465,39.001,20.99,38.861,19.61,38.599z" clip-rule="evenodd"/><path fill="#ffab91" fill-rule="evenodd" d="M24.001,29.749	c-0.169,0-0.335-0.743-0.499-0.732l0.499-3.016c0.96,0,1.884,0.084,2.752,0.239l-0.975,2.971	C25.242,29.077,24.638,29.749,24.001,29.749z" clip-rule="evenodd"/><path fill="#ff8b80" fill-rule="evenodd" d="M25.11,29.079	l1.641-2.84c1.325,0.237,2.517,0.64,3.496,1.164l-2.773,2.607C26.317,30.194,25.514,29.813,25.11,29.079z" clip-rule="evenodd"/><path fill="#f48fb0" fill-rule="evenodd" d="M33.001,31.001	l-5.377,0.849c0.241-0.259-0.147-0.545-0.147-0.849c0-0.603-0.012-1.144-0.859-1.511l3.621-2.091	C31.941,28.309,33.001,29.587,33.001,31.001z" clip-rule="evenodd"/><path fill="#cd93d8" fill-rule="evenodd" d="M30.233,34.607	l-4.477-1.808c0.075-1.751,1.855-1.453,2.245-1.799h5C33.001,32.417,31.938,33.697,30.233,34.607z" clip-rule="evenodd"/><path fill="#b49ddb" fill-rule="evenodd" d="M25.015,35.135	l-0.533-2.148c0.463-0.717,1.26-0.771,2.135-0.473l3.621,2.091c-0.976,0.521-2.163,0.923-3.483,1.157	C26.255,35.851,25.549,35.095,25.015,35.135z" clip-rule="evenodd"/><path fill="#90caf9" fill-rule="evenodd" d="M24.001,36.001	l-0.568-3.019c0.185,0.012,0.424-0.392,0.617-0.392c0.384,0,0.708,0.384,1.06,0.333l1.64,2.84	C25.883,35.918,24.959,36.001,24.001,36.001z" clip-rule="evenodd"/><path fill="#ffcc80" fill-rule="evenodd" d="M22.219,29.21	l-1.044-1.504l0.073-1.467c0.867-0.153,1.789-0.237,2.748-0.237v3C23.594,29.393,23.117,29.677,22.219,29.21z" clip-rule="evenodd"/><path fill="#fff276" fill-rule="evenodd" d="M20.526,30.01	l-2.768-2.609c0.976-0.523,2.165-0.924,3.488-1.16l1.64,2.839C22.363,29.682,21.649,30.143,20.526,30.01z" clip-rule="evenodd"/><path fill="#fff59d" fill-rule="evenodd" d="M15.001,31.001	c0-1.413,1.057-2.691,2.759-3.601l3.62,2.091c-0.844,0.367-0.603,0.908-0.603,1.511c0,0.304-0.641,0.591-0.401,0.848l-4.672,1.092	C15.25,32.345,15.001,31.689,15.001,31.001z" clip-rule="evenodd"/><path fill="#dcffb1" fill-rule="evenodd" d="M15.001,31.001h5	c1.661,0.677,1.8,1.412,2.243,1.797l-4.487,1.804C16.058,33.691,15.001,32.415,15.001,31.001z" clip-rule="evenodd"/><path fill="#b9ff81" fill-rule="evenodd" d="M17.759,34.603	l3.621-2.091c1.141-0.227,1.664,0.379,2.096,0.756l-2.208,2.497C19.938,35.531,18.742,35.129,17.759,34.603z" clip-rule="evenodd"/><path fill="#80deea" fill-rule="evenodd" d="M21.247,35.763	l1.64-2.84c0.447-0.299,0.824-0.295,1.109,0.077v3C23.038,36.001,22.114,35.918,21.247,35.763z" clip-rule="evenodd"/><path fill="#ffccbc" fill-rule="evenodd" d="M24.001,31.001	l-0.208-1.372l0.208-0.628c0.385,0,0.76,0.028,1.113,0.08l-0.165,0.828L24.001,31.001z" clip-rule="evenodd"/><path fill="#ffcdd2" fill-rule="evenodd" d="M24.001,31.001	l1.109-1.921c0.563,0.081,1.075,0.223,1.505,0.409l-0.819,0.94L24.001,31.001z" clip-rule="evenodd"/><path fill="#f8bbd0" fill-rule="evenodd" d="M27.623,31.85	l-3.623-0.849l2.617-1.511c0.847,0.367,1.383,0.908,1.383,1.511C28.001,31.305,27.865,31.591,27.623,31.85z" clip-rule="evenodd"/><path fill="#e1bee7" fill-rule="evenodd" d="M25.755,32.799	l-1.755-1.799h4C28.001,31.79,27.083,32.474,25.755,32.799z" clip-rule="evenodd"/><path fill="#d1c4e9" fill-rule="evenodd" d="M25.111,32.923	l-0.657-0.632l-0.453-1.291l2.616,1.513C26.186,32.701,25.674,32.842,25.111,32.923z" clip-rule="evenodd"/><path fill="#bbdefb" fill-rule="evenodd" d="M24.001,33.001	l-0.247-0.711l0.247-1.289l1.109,1.923C24.758,32.974,24.385,33.001,24.001,33.001z" clip-rule="evenodd"/><path fill="#ffe0b2" fill-rule="evenodd" d="M23.998,31.001	l-1.041-1.14l-0.064-0.781c0.351-0.051,0.721-0.077,1.104-0.077L23.998,31.001z" clip-rule="evenodd"/><path fill="#fff9c4" fill-rule="evenodd" d="M23.998,31.001	l-2.047-0.585l-0.571-0.925c0.431-0.187,0.943-0.329,1.505-0.411L23.998,31.001z" clip-rule="evenodd"/><path fill="#fff9c4" fill-rule="evenodd" d="M20.001,31.001	c0-0.603,0.535-1.144,1.379-1.511l2.619,1.511l-2.66,0.468L20.001,31.001L20.001,31.001z" clip-rule="evenodd"/><path fill="#e5ffc7" fill-rule="evenodd" d="M20.001,31.001h3.997	l-1.481,1.247l-1.139,0.264C20.534,32.145,20.001,31.603,20.001,31.001z" clip-rule="evenodd"/><path fill="#e5ffc7" fill-rule="evenodd" d="M21.381,32.513	l2.617-1.512l-0.404,1.557c-0.213-0.013-0.503,0.395-0.704,0.365C22.326,32.842,21.813,32.701,21.381,32.513z" clip-rule="evenodd"/><path fill="#b2ebf2" fill-rule="evenodd" d="M22.887,32.923	l1.111-1.923l-0.001,2C23.611,33.001,23.239,32.974,22.887,32.923z" clip-rule="evenodd"/><path fill="#eee" fill-rule="evenodd" d="M11.001,20.001l6-6h6	l-6,6H11.001z" clip-rule="evenodd"/><path fill="#eee" fill-rule="evenodd" d="M22.001,20.001l6-6h6	l-6,6H22.001z" clip-rule="evenodd"/><path fill="#eee" fill-rule="evenodd" d="M33.001,20.001l6-6h3v3	l-3,3H33.001z" clip-rule="evenodd"/><path fill="#eee" fill-rule="evenodd" d="M5.999,20.001v-5.999	l0.001-0.001h6l-6,6H5.999z" clip-rule="evenodd"/><path fill="#010f16" fill-rule="evenodd" d="M10.734,7.91	l3.705,0.224l1.888-1.196l5-0.547l4.113,0.537l1.887-1.193l5-0.548l6.336,2.271l0.337,2.929l-5,0.547l-4.115-0.537l-1.885,1.195	l-5,0.548l-4.112-0.537l-1.888,1.193l-5,0.548l-3.113-0.647l-1.089-2.629C8.585,9.149,9.583,8.403,10.734,7.91z" clip-rule="evenodd"/><path fill="#eee" fill-rule="evenodd" d="M17.001,12.795	l-6.269-4.884c0.728-0.313,1.519-0.527,2.352-0.617l3.244-0.356l6.673,5.201L17.001,12.795z" clip-rule="evenodd"/><path fill="#eee" fill-rule="evenodd" d="M28.001,11.591	l-6.673-5.2l6-0.656l6.673,5.199L28.001,11.591z" clip-rule="evenodd"/><path fill="#eee" fill-rule="evenodd" d="M39.001,10.387	l-6.673-5.2l1.245-0.137c3.727-0.408,7.149,1.739,8.428,5.008L39.001,10.387z" clip-rule="evenodd"/><path fill="#eee" fill-rule="evenodd" d="M7.797,10.069	l4.204,3.275l-6,0.657C6.214,12.531,6.851,11.175,7.797,10.069z" clip-rule="evenodd"/></svg>